<svg xmlns="http://www.w3.org/2000/svg" viewBox="0 0 100 100">
  <circle cx="50" cy="50" r="45" fill="#F97316"/>
  <circle cx="45" cy="45" r="40" fill="#FB923C"/>
  <polygon points="50,20 52.5,27.5 60,27.5 54,32.5 56,40 50,35 44,40 46,32.5 40,27.5 47.5,27.5" fill="#EF4444" /><polygon points="30,35 32.5,42.5 40,42.5 34,47.5 36,55 30,50 24,55 26,47.5 20,42.5 27.5,42.5" fill="#EF4444" /><polygon points="70,35 72.5,42.5 80,42.5 74,47.5 76,55 70,50 64,55 66,47.5 60,42.5 67.5,42.5" fill="#EF4444" /><polygon points="40,55 42.5,62.5 50,62.5 44,67.5 46,75 40,70 34,75 36,67.5 30,62.5 37.5,62.5" fill="#EF4444" /><polygon points="60,55 62.5,62.5 70,62.5 64,67.5 66,75 60,70 54,75 56,67.5 50,62.5 57.5,62.5" fill="#EF4444" />
  <path d="M 25 25 Q 50 10 75 25 Q 50 20 25 25" fill="#FFFFFF" opacity="0.6"/>
  <circle cx="30" cy="30" r="5" fill="#FFFFFF" opacity="0.8"/>
</svg>