<svg xmlns="http://www.w3.org/2000/svg" viewBox="0 0 100 100">
  <circle cx="50" cy="50" r="45" fill="#F97316"/>
  <circle cx="45" cy="45" r="40" fill="#FB923C"/>
  <polygon points="50,15 52.5,22.5 60,22.5 54,27.5 56,35 50,30 44,35 46,27.5 40,22.5 47.5,22.5" fill="#EF4444" /><polygon points="25,35 27.5,42.5 35,42.5 29,47.5 31,55 25,50 19,55 21,47.5 15,42.5 22.5,42.5" fill="#EF4444" /><polygon points="75,35 77.5,42.5 85,42.5 79,47.5 81,55 75,50 69,55 71,47.5 65,42.5 72.5,42.5" fill="#EF4444" /><polygon points="35,60 37.5,67.5 45,67.5 39,72.5 41,80 35,75 29,80 31,72.5 25,67.5 32.5,67.5" fill="#EF4444" /><polygon points="65,60 67.5,67.5 75,67.5 69,72.5 71,80 65,75 59,80 61,72.5 55,67.5 62.5,67.5" fill="#EF4444" /><polygon points="50,40 52.5,47.5 60,47.5 54,52.5 56,60 50,55 44,60 46,52.5 40,47.5 47.5,47.5" fill="#EF4444" /><polygon points="50,75 52.5,82.5 60,82.5 54,87.5 56,95 50,90 44,95 46,87.5 40,82.5 47.5,82.5" fill="#EF4444" />
  <path d="M 25 25 Q 50 10 75 25 Q 50 20 25 25" fill="#FFFFFF" opacity="0.6"/>
  <circle cx="30" cy="30" r="5" fill="#FFFFFF" opacity="0.8"/>
</svg>