<svg xmlns="http://www.w3.org/2000/svg" viewBox="0 0 100 100">
  <circle cx="50" cy="50" r="45" fill="#F97316"/>
  <circle cx="45" cy="45" r="40" fill="#FB923C"/>
  <polygon points="35,25 37.5,32.5 45,32.5 39,37.5 41,45 35,40 29,45 31,37.5 25,32.5 32.5,32.5" fill="#EF4444" /><polygon points="65,25 67.5,32.5 75,32.5 69,37.5 71,45 65,40 59,45 61,37.5 55,32.5 62.5,32.5" fill="#EF4444" /><polygon points="35,55 37.5,62.5 45,62.5 39,67.5 41,75 35,70 29,75 31,67.5 25,62.5 32.5,62.5" fill="#EF4444" /><polygon points="65,55 67.5,62.5 75,62.5 69,67.5 71,75 65,70 59,75 61,67.5 55,62.5 62.5,62.5" fill="#EF4444" />
  <path d="M 25 25 Q 50 10 75 25 Q 50 20 25 25" fill="#FFFFFF" opacity="0.6"/>
  <circle cx="30" cy="30" r="5" fill="#FFFFFF" opacity="0.8"/>
</svg>